<svg version="1.1" xmlns="http://www.w3.org/2000/svg" xmlns:xlink="http://www.w3.org/1999/xlink" width="1161" height="685"><defs><clipPath id="IGiUBtWkCyxF"><path fill="none" stroke="none" d=" M 0 0 L 1161 0 L 1161 685 L 0 685 L 0 0 Z"/></clipPath></defs><g transform="scale(1,1)" clip-path="url(#IGiUBtWkCyxF)"><g><rect fill="rgb(255,255,255)" stroke="none" x="0" y="0" width="1161" height="685" fill-opacity="1"/><path fill="none" stroke="rgb(97,97,97)" paint-order="fill stroke markers" d=" M 576.4812571233718 335.74374363342224 C 576.4812571233718 436.9321098667808 494.45187877051814 518.9614882196348 393.2635125371599 518.9614882196348 C 292.07514630380166 518.9614882196348 210.04576795094795 436.9321098667808 210.04576795094795 335.74374363342224 C 210.04576795094795 234.55537740006363 292.07514630380166 152.52599904720967 393.2635125371599 152.52599904720967 C 494.45187877051814 152.52599904720967 576.4812571233718 234.55537740006363 576.4812571233718 335.74374363342224 Z" stroke-opacity="0.8" stroke-linecap="round" stroke-linejoin="round" stroke-miterlimit="10" stroke-width="0.5"/><path fill="rgb(0,0,0)" stroke="none" paint-order="stroke fill markers" fill-rule="evenodd" d=" M 321.3013524858642 321.3866431515968 L 342.10457172467244 325.5370731657058 L 346.2550017387831 304.73385392689636 L 325.4517824999732 300.5834239127884 L 321.3013524858642 321.3866431515968" fill-opacity="0.047058823529411764"/><path fill="none" stroke="rgb(0,0,0)" paint-order="fill stroke markers" d=" M 321.3013524858642 321.3866431515968 L 342.10457172467244 325.5370731657058 L 346.2550017387831 304.73385392689636 L 325.4517824999732 300.5834239127884 L 321.3013524858642 321.3866431515968" stroke-opacity="0.6" stroke-linecap="round" stroke-linejoin="round" stroke-miterlimit="10" stroke-width="0.5"/><path fill="rgb(0,0,0)" stroke="none" paint-order="stroke fill markers" fill-rule="evenodd" d=" M 417.10979808291916 461.6577587405263 L 413.16249062623194 440.8150438539688 L 392.3197757396729 444.7623513106549 L 396.26708319636174 465.6050661972135 L 417.10979808291916 461.6577587405263" fill-opacity="0.047058823529411764"/><path fill="none" stroke="rgb(0,0,0)" paint-order="fill stroke markers" d=" M 417.10979808291916 461.6577587405263 L 413.16249062623194 440.8150438539688 L 392.3197757396729 444.7623513106549 L 396.26708319636174 465.6050661972135 L 417.10979808291916 461.6577587405263" stroke-opacity="0.6" stroke-linecap="round" stroke-linejoin="round" stroke-miterlimit="10" stroke-width="0.5"/><g transform="scale(19,19)"><g transform="translate(23.63157894736842,18.115210526315792)"><path fill="rgb(97,97,97)" stroke="none" paint-order="stroke fill markers" d=" M 0.47100000000000003 -0.377 L 0.47100000000000003 -0.377 L 0.36 0.067 Q 0.34500000000000003 0.127 0.28200000000000003 0.168 Q 0.224 0.20500000000000002 0.148 0.20500000000000002 Q 0.025 0.20500000000000002 0.016 0.155 Q 0.015 0.15 0.015 0.14400000000000002 Q 0.015 0.10300000000000001 0.052000000000000005 0.089 Q 0.061 0.08600000000000001 0.069 0.08600000000000001 Q 0.1 0.08600000000000001 0.106 0.113 Q 0.107 0.117 0.107 0.121 Q 0.107 0.153 0.077 0.169 Q 0.07200000000000001 0.171 0.066 0.17300000000000001 Q 0.097 0.183 0.146 0.183 Q 0.244 0.183 0.29 0.075 L 0.323 -0.057 L 0.322 -0.058 Q 0.277 -0.008 0.221 -0.001 Q 0.213 0 0.20600000000000002 0 Q 0.136 0 0.098 -0.061 Q 0.073 -0.10200000000000001 0.073 -0.158 Q 0.073 -0.265 0.149 -0.354 Q 0.219 -0.436 0.3 -0.442 L 0.311 -0.442 Q 0.365 -0.442 0.398 -0.391 L 0.404 -0.379 Q 0.41300000000000003 -0.417 0.445 -0.422 Q 0.47100000000000003 -0.422 0.47400000000000003 -0.395 L 0.47100000000000003 -0.377 M 0.341 -0.128 L 0.341 -0.128 L 0.389 -0.319 Q 0.392 -0.331 0.392 -0.334 Q 0.392 -0.354 0.375 -0.382 L 0.375 -0.382 Q 0.363 -0.402 0.34500000000000003 -0.41200000000000003 Q 0.33 -0.42 0.312 -0.42 Q 0.26 -0.42 0.213 -0.353 Q 0.20600000000000002 -0.342 0.2 -0.331 Q 0.168 -0.271 0.149 -0.164 Q 0.14400000000000002 -0.133 0.14400000000000002 -0.114 Q 0.14400000000000002 -0.048 0.182 -0.028 Q 0.193 -0.022 0.209 -0.022 Q 0.248 -0.022 0.29 -0.058 Q 0.334 -0.096 0.341 -0.128 Z"/></g><g transform="translate(24.10857894736842,18.26521052631579) scale(0.7,0.7)"><path fill="rgb(97,97,97)" stroke="none" paint-order="stroke fill markers" d=" M 0.294 -0.64 L 0.294 -0.079 Q 0.294 -0.049 0.306 -0.041 Q 0.323 -0.031 0.387 -0.031 L 0.419 -0.031 L 0.419 0 Q 0.384 -0.003 0.257 -0.003 Q 0.13 -0.003 0.095 0 L 0.095 -0.031 L 0.127 -0.031 Q 0.20400000000000001 -0.031 0.215 -0.049 L 0.216 -0.05 Q 0.22 -0.058 0.22 -0.079 L 0.22 -0.597 Q 0.168 -0.5710000000000001 0.089 -0.5710000000000001 L 0.089 -0.602 Q 0.209 -0.602 0.271 -0.666 Q 0.29 -0.666 0.293 -0.659 L 0.293 -0.659 L 0.293 -0.658 Q 0.294 -0.655 0.294 -0.64 Z"/></g></g><path fill="rgb(97,97,97)" stroke="none" paint-order="stroke fill markers" d=" M 494.19146007322473 285.28086521031173 C 494.34332969818337 285.3463433885341 494.47950546126737 285.44102812178676 494.5930177884957 285.5577526116492 C 494.4748617395229 285.4362529923809 494.3380178438429 285.34391545807176 494.19146012264383 285.28086521031173 Z M 494.59470891237964 285.55949495230556 L 494.5947089123796 285.55949495230556 C 494.7074486280663 285.67587360413904 494.79770897409986 285.8140443613617 494.858620868512 285.9669437612804 L 494.85862082965224 285.9669437612804 C 494.7999652541049 285.8193679754687 494.71203578835684 285.6806017232988 494.5947089618391 285.55949495230556 Z M 488.34478375622933 289.8904274757522 L 287.58342016450524 485.12700229982113 C 287.08850243577695 485.60830029684575 287.0774614617344 486.39967950477876 287.558759458759 486.89459723350706 C 287.80380855678374 487.1465807110429 288.12923868340135 487.273130883091 288.4549966684326 487.273130883091 C 288.7690560382668 487.273130883091 289.0834201412525 487.1555068382532 289.32635439244496 486.91925793925327 L 490.08771798416905 291.6826831151843 L 490.0877179841691 291.6826831151843 L 488.3447837562294 289.8904274757522 Z" fill-opacity="0.8"/><path fill="rgb(97,97,97)" stroke="none" paint-order="stroke fill markers" d=" M 486.62639779835973 285.0805760902702 C 486.1277965652534 285.0805760902702 485.6761032112117 285.37718950963875 485.47844633429577 285.8361587778517 C 485.27847286967165 286.3005072799258 485.3779068691257 286.8395941470051 485.73038241431993 287.20204401660396 L 492.70211932607856 294.37106657433253 C 492.94209718740734 294.6178353097276 493.2671931933269 294.7496397878858 493.5985142817677 294.7496397878858 C 493.75383217175533 294.7496397878858 493.9105180737779 294.7206746919607 494.0604445057612 294.6610096378796 C 494.53019107330465 294.47406825612234 494.8410725973706 294.0225658214675 494.84812550979495 293.5170372126247 L 494.9467683327799 286.44665747788105 C 494.95639893742555 285.7563687183002 494.4046164806224 285.18897196626443 493.7143277210416 285.17934136161875 L 486.64394798629803 285.0806985386338 C 486.63809170249766 285.0806168343424 486.6322415286965 285.0805760902702 486.62639779835973 285.0805760902702 Z" fill-opacity="0.8"/><g transform="scale(19,19)"><g transform="translate(24.31578947368421,13.06257894736842)"><path fill="rgb(97,97,97)" stroke="none" paint-order="stroke fill markers" d=" M 0.47100000000000003 -0.377 L 0.47100000000000003 -0.377 L 0.36 0.067 Q 0.34500000000000003 0.127 0.28200000000000003 0.168 Q 0.224 0.20500000000000002 0.148 0.20500000000000002 Q 0.025 0.20500000000000002 0.016 0.155 Q 0.015 0.15 0.015 0.14400000000000002 Q 0.015 0.10300000000000001 0.052000000000000005 0.089 Q 0.061 0.08600000000000001 0.069 0.08600000000000001 Q 0.1 0.08600000000000001 0.106 0.113 Q 0.107 0.117 0.107 0.121 Q 0.107 0.153 0.077 0.169 Q 0.07200000000000001 0.171 0.066 0.17300000000000001 Q 0.097 0.183 0.146 0.183 Q 0.244 0.183 0.29 0.075 L 0.323 -0.057 L 0.322 -0.058 Q 0.277 -0.008 0.221 -0.001 Q 0.213 0 0.20600000000000002 0 Q 0.136 0 0.098 -0.061 Q 0.073 -0.10200000000000001 0.073 -0.158 Q 0.073 -0.265 0.149 -0.354 Q 0.219 -0.436 0.3 -0.442 L 0.311 -0.442 Q 0.365 -0.442 0.398 -0.391 L 0.404 -0.379 Q 0.41300000000000003 -0.417 0.445 -0.422 Q 0.47100000000000003 -0.422 0.47400000000000003 -0.395 L 0.47100000000000003 -0.377 M 0.341 -0.128 L 0.341 -0.128 L 0.389 -0.319 Q 0.392 -0.331 0.392 -0.334 Q 0.392 -0.354 0.375 -0.382 L 0.375 -0.382 Q 0.363 -0.402 0.34500000000000003 -0.41200000000000003 Q 0.33 -0.42 0.312 -0.42 Q 0.26 -0.42 0.213 -0.353 Q 0.20600000000000002 -0.342 0.2 -0.331 Q 0.168 -0.271 0.149 -0.164 Q 0.14400000000000002 -0.133 0.14400000000000002 -0.114 Q 0.14400000000000002 -0.048 0.182 -0.028 Q 0.193 -0.022 0.209 -0.022 Q 0.248 -0.022 0.29 -0.058 Q 0.334 -0.096 0.341 -0.128 Z"/></g><g transform="translate(24.79278947368421,13.21257894736842) scale(0.7,0.7)"><path fill="rgb(97,97,97)" stroke="none" paint-order="stroke fill markers" d=" M 0.449 -0.17400000000000002 L 0.449 -0.17400000000000002 L 0.421 0 L 0.05 0 Q 0.05 -0.025 0.056 -0.032 L 0.061 -0.037 L 0.253 -0.251 Q 0.358 -0.369 0.358 -0.47200000000000003 Q 0.358 -0.561 0.304 -0.607 L 0.303 -0.608 L 0.302 -0.608 Q 0.27 -0.635 0.224 -0.635 Q 0.152 -0.635 0.109 -0.5730000000000001 Q 0.097 -0.555 0.089 -0.533 Q 0.092 -0.534 0.10200000000000001 -0.534 Q 0.14200000000000002 -0.534 0.153 -0.498 L 0.153 -0.497 Q 0.155 -0.49 0.155 -0.482 Q 0.155 -0.442 0.117 -0.431 Q 0.109 -0.429 0.10300000000000001 -0.429 Q 0.066 -0.429 0.054 -0.46 Q 0.05 -0.47100000000000003 0.05 -0.485 Q 0.05 -0.562 0.109 -0.617 Q 0.162 -0.666 0.23700000000000002 -0.666 Q 0.34700000000000003 -0.666 0.40800000000000003 -0.592 Q 0.443 -0.549 0.448 -0.49 Q 0.449 -0.481 0.449 -0.47200000000000003 Q 0.449 -0.399 0.394 -0.333 Q 0.365 -0.299 0.304 -0.243 L 0.243 -0.189 L 0.233 -0.18 L 0.127 -0.077 L 0.307 -0.077 Q 0.395 -0.077 0.402 -0.085 Q 0.41200000000000003 -0.099 0.424 -0.17400000000000002 L 0.449 -0.17400000000000002 Z"/></g></g><path fill="rgb(97,97,97)" stroke="none" paint-order="stroke fill markers" d=" M 354.1481027068091 155.5001509368003 C 353.81279526697335 155.5001509368003 353.4784017382715 155.6342491204366 353.23214582059194 155.89924783276473 C 352.76220211489084 156.40495944388454 352.79119773124177 157.19588435061644 353.2969093423616 157.66582805631754 L 488.26762225458185 283.0903498438222 L 489.969438956365 281.2590060984998 L 489.9694389563651 281.2590060984998 L 354.99872604414475 155.8344843109951 C 354.75801314535306 155.61079652297352 354.45268088803937 155.5001509368003 354.1481027068091 155.5001509368003 Z M 494.86877510382965 286.86511292089136 C 494.81106107353526 287.02008711600195 494.7233887324814 287.1608660352414 494.6125618414408 287.28012807651066 C 494.7279223213964 287.15598739014723 494.8132171811654 287.01466001546515 494.86877515331656 286.86511292089136 Z M 494.6108922309145 287.2819212573905 C 494.5003256276054 287.40043940321635 494.36684317669165 287.4975946513484 494.2171585384273 287.56616235785066 L 494.2171580989556 287.56616235785066 C 494.36163656727587 287.50011806452 494.495832641674 287.40526283348873 494.6108922803756 287.2819212573905 Z" fill-opacity="0.8"/><path fill="rgb(97,97,97)" stroke="none" paint-order="stroke fill markers" d=" M 493.4380796100058 278.1128526842146 C 493.0969288228429 278.1128526842146 492.76315869786595 278.25265343465503 492.5221640090399 278.51199048051615 L 485.714897201907 285.8373654618059 C 485.3707369001779 286.20772016293165 485.28356112739635 286.7489245191084 485.4940198099863 287.2086157859982 C 485.69806977368705 287.6543089033743 486.142943039286 287.9382788110446 486.63032195592524 287.9382788110446 C 486.6456293561943 287.9382788110446 486.66097868561485 287.9379986925905 486.67636379998504 287.93743466828175 L 493.7426846941964 287.6783805812033 C 494.4325771848211 287.65308885273305 494.9713425528342 287.0733174908271 494.9460508243638 286.38342500020224 L 494.68699673728537 279.3171041059909 C 494.6684744998429 278.8118657022128 494.34742780967144 278.3675338518634 493.8735602359826 278.19129980141236 C 493.73151352568846 278.13847182056213 493.58412029754714 278.1128526842146 493.4380796100058 278.1128526842146 Z" fill-opacity="0.8"/><g transform="scale(19,19)"><g transform="translate(27,16.957315789473686)"><path fill="rgb(97,97,97)" stroke="none" paint-order="stroke fill markers" d=" M 0.47100000000000003 -0.377 L 0.47100000000000003 -0.377 L 0.36 0.067 Q 0.34500000000000003 0.127 0.28200000000000003 0.168 Q 0.224 0.20500000000000002 0.148 0.20500000000000002 Q 0.025 0.20500000000000002 0.016 0.155 Q 0.015 0.15 0.015 0.14400000000000002 Q 0.015 0.10300000000000001 0.052000000000000005 0.089 Q 0.061 0.08600000000000001 0.069 0.08600000000000001 Q 0.1 0.08600000000000001 0.106 0.113 Q 0.107 0.117 0.107 0.121 Q 0.107 0.153 0.077 0.169 Q 0.07200000000000001 0.171 0.066 0.17300000000000001 Q 0.097 0.183 0.146 0.183 Q 0.244 0.183 0.29 0.075 L 0.323 -0.057 L 0.322 -0.058 Q 0.277 -0.008 0.221 -0.001 Q 0.213 0 0.20600000000000002 0 Q 0.136 0 0.098 -0.061 Q 0.073 -0.10200000000000001 0.073 -0.158 Q 0.073 -0.265 0.149 -0.354 Q 0.219 -0.436 0.3 -0.442 L 0.311 -0.442 Q 0.365 -0.442 0.398 -0.391 L 0.404 -0.379 Q 0.41300000000000003 -0.417 0.445 -0.422 Q 0.47100000000000003 -0.422 0.47400000000000003 -0.395 L 0.47100000000000003 -0.377 M 0.341 -0.128 L 0.341 -0.128 L 0.389 -0.319 Q 0.392 -0.331 0.392 -0.334 Q 0.392 -0.354 0.375 -0.382 L 0.375 -0.382 Q 0.363 -0.402 0.34500000000000003 -0.41200000000000003 Q 0.33 -0.42 0.312 -0.42 Q 0.26 -0.42 0.213 -0.353 Q 0.20600000000000002 -0.342 0.2 -0.331 Q 0.168 -0.271 0.149 -0.164 Q 0.14400000000000002 -0.133 0.14400000000000002 -0.114 Q 0.14400000000000002 -0.048 0.182 -0.028 Q 0.193 -0.022 0.209 -0.022 Q 0.248 -0.022 0.29 -0.058 Q 0.334 -0.096 0.341 -0.128 Z"/></g><g transform="translate(27.477,17.107315789473684) scale(0.7,0.7)"><path fill="rgb(97,97,97)" stroke="none" paint-order="stroke fill markers" d=" M 0.29 -0.352 L 0.29 -0.352 Q 0.39 -0.332 0.434 -0.254 Q 0.457 -0.215 0.457 -0.171 Q 0.457 -0.08600000000000001 0.387 -0.028 Q 0.326 0.022 0.244 0.022 Q 0.145 0.022 0.085 -0.037 Q 0.042 -0.079 0.042 -0.135 Q 0.042 -0.182 0.084 -0.191 Q 0.091 -0.193 0.098 -0.193 Q 0.136 -0.193 0.149 -0.161 Q 0.153 -0.148 0.154 -0.137 Q 0.154 -0.097 0.11800000000000001 -0.085 Q 0.10400000000000001 -0.08 0.088 -0.082 Q 0.125 -0.02 0.216 -0.008 Q 0.229 -0.006 0.241 -0.006 Q 0.305 -0.006 0.335 -0.069 Q 0.354 -0.109 0.354 -0.171 Q 0.354 -0.304 0.274 -0.331 Q 0.256 -0.337 0.23500000000000001 -0.337 L 0.191 -0.337 Q 0.169 -0.337 0.167 -0.34800000000000003 Q 0.167 -0.358 0.182 -0.36 Q 0.197 -0.36 0.221 -0.363 Q 0.272 -0.365 0.301 -0.402 L 0.301 -0.403 L 0.302 -0.404 L 0.303 -0.405 L 0.304 -0.405 L 0.31 -0.41500000000000004 Q 0.338 -0.462 0.338 -0.529 Q 0.338 -0.622 0.266 -0.638 Q 0.254 -0.641 0.242 -0.641 Q 0.17200000000000001 -0.641 0.128 -0.601 Q 0.117 -0.591 0.109 -0.579 Q 0.171 -0.579 0.171 -0.529 Q 0.171 -0.493 0.14 -0.481 Q 0.131 -0.47800000000000004 0.12 -0.47800000000000004 Q 0.081 -0.47800000000000004 0.07100000000000001 -0.513 L 0.07100000000000001 -0.513 L 0.07100000000000001 -0.514 Q 0.069 -0.522 0.069 -0.53 Q 0.069 -0.597 0.135 -0.637 Q 0.183 -0.666 0.246 -0.666 Q 0.337 -0.666 0.393 -0.612 L 0.395 -0.61 Q 0.43 -0.5740000000000001 0.43 -0.528 Q 0.43 -0.445 0.359 -0.389 Q 0.328 -0.365 0.29 -0.352 Z"/></g></g><path fill="rgb(97,97,97)" stroke="none" paint-order="stroke fill markers" d=" M 493.6969590807814 285.1788793022707 C 493.56169373392237 285.1788793022707 493.4241227818866 285.20100676337256 493.28907937284646 285.2476146656076 L 493.28907937284663 285.2476146656076 C 493.4198104640786 285.20249508544794 493.5579827614546 285.1789359230902 493.6978050307489 285.1789359230902 C 493.72260201757126 285.1789359230902 493.74745089893554 285.17967690051194 493.7723193721417 285.18117000407483 L 493.77231941326266 285.18117000407483 C 493.74730025338954 285.1796479474897 493.7221697121767 285.1788793022707 493.6969590807814 285.1788793022707 Z M 493.2875342800971 285.2481490345878 C 493.1279634166305 285.3034508544256 492.9867368773958 285.38785110642584 492.867745334764 285.49335813923204 L 492.8677453679896 285.49335813923204 C 492.9911621920351 285.3841019405631 493.1342102322631 285.3012893150897 493.2875343294258 285.2481490345878 Z M 496.9175480084567 291.92943442974314 L 494.5543378884338 292.7450556216095 L 494.5543378884339 292.7450556216095 L 544.5831038273518 437.7001979574485 C 544.76172349807 438.2177370033756 545.2462501770979 438.5427277848637 545.7646397753614 438.5427277848637 C 545.8999051222205 438.5427277848637 546.0374760742562 438.5206003237618 546.1725194832964 438.47399242152676 C 546.8251019382635 438.2487648485735 547.1715415203279 437.5371592205494 546.9463139473746 436.8845767655822 L 496.91754800845683 291.92943442974314 Z" fill-opacity="0.8"/><path fill="rgb(97,97,97)" stroke="none" paint-order="stroke fill markers" d=" M 493.6978050307489 285.1789359230902 C 493.23455450298337 285.1789359230902 492.78941552882185 285.4375421618832 492.5730033803372 285.88206441282466 L 489.47782552402396 292.2397270366031 C 489.2565218579516 292.6942967290762 489.33083535216844 293.2374166744678 489.6661137406167 293.6158308921865 C 489.90767868255926 293.88847479553067 490.2504370290328 294.03693386182033 490.6019185841154 294.03693386182033 C 490.73827341956917 294.03693386182033 490.875941096434 294.0145907976094 491.0095227083996 293.9684874094089 L 500.4623631884911 290.70600264194366 C 500.940277823542 290.5410586528553 501.27177404423156 290.10446728077693 501.30227568162087 289.59981039927357 C 501.3327773190102 289.0951535177702 501.05627759782544 288.62181465956223 500.6017079053523 288.4005109934898 L 494.24404528157396 285.3053331371766 C 494.0678621091793 285.2195597506161 493.88141101992574 285.1789359230902 493.6978050307489 285.1789359230902 Z" fill-opacity="0.8"/><g transform="scale(19,19)"><g transform="translate(23.105263157894736,15.799421052631578)"><path fill="rgb(46,125,50)" stroke="none" paint-order="stroke fill markers" d=" M 0.462 -0.339 L 0.42 -0.171 Q 0.40900000000000003 -0.132 0.40900000000000003 -0.098 Q 0.417 -0.016 0.483 -0.011 Q 0.55 -0.011 0.593 -0.099 Q 0.627 -0.167 0.644 -0.252 Q 0.648 -0.271 0.648 -0.28200000000000003 Q 0.648 -0.331 0.612 -0.367 Q 0.597 -0.38 0.597 -0.394 Q 0.597 -0.419 0.624 -0.435 Q 0.635 -0.442 0.647 -0.442 Q 0.675 -0.442 0.686 -0.40700000000000003 Q 0.6910000000000001 -0.392 0.6910000000000001 -0.372 Q 0.6910000000000001 -0.31 0.651 -0.183 Q 0.638 -0.14200000000000002 0.625 -0.112 Q 0.5720000000000001 0.011 0.48 0.011 Q 0.383 0.011 0.355 -0.059000000000000004 Q 0.315 0.011 0.251 0.011 Q 0.153 0.011 0.121 -0.056 Q 0.109 -0.082 0.109 -0.115 Q 0.109 -0.166 0.162 -0.31 Q 0.164 -0.313 0.165 -0.317 Q 0.183 -0.361 0.183 -0.387 Q 0.183 -0.42 0.158 -0.42 Q 0.097 -0.42 0.061 -0.309 Q 0.059000000000000004 -0.303 0.057 -0.296 Q 0.046 -0.279 0.041 -0.278 Q 0.029 -0.278 0.029 -0.28800000000000003 Q 0.029 -0.306 0.05 -0.35100000000000003 Q 0.094 -0.442 0.161 -0.442 Q 0.213 -0.442 0.234 -0.398 Q 0.243 -0.381 0.243 -0.36 Q 0.243 -0.342 0.226 -0.296 Q 0.17400000000000002 -0.16 0.17400000000000002 -0.10200000000000001 Q 0.17400000000000002 -0.013000000000000001 0.254 -0.011 Q 0.31 -0.011 0.34600000000000003 -0.095 Q 0.34500000000000003 -0.1 0.34500000000000003 -0.113 Q 0.34500000000000003 -0.14 0.354 -0.179 L 0.41100000000000003 -0.403 Q 0.42 -0.429 0.448 -0.431 Q 0.47300000000000003 -0.426 0.47700000000000004 -0.404 Q 0.47700000000000004 -0.405 0.462 -0.339 Z"/></g></g><path fill="none" stroke="rgb(46,125,50)" paint-order="fill stroke markers" d=" M 393.2635125371599 335.74374363342224 L 493.6968899687796 286.4292197256191" stroke-opacity="0.8" stroke-linecap="round" stroke-linejoin="round" stroke-miterlimit="10" stroke-width="1.5"/><g transform="scale(19,19)"><g transform="translate(16.157894736842106,14.694157894736842)"><path fill="rgb(219,97,20)" stroke="none" paint-order="stroke fill markers" d=" M 0.045 0.122 L 0.045 0.122 L 0.157 -0.323 Q 0.164 -0.353 0.164 -0.374 Q 0.164 -0.42 0.133 -0.42 Q 0.092 -0.42 0.066 -0.325 Q 0.063 -0.314 0.06 -0.301 Q 0.049 -0.279 0.043000000000000003 -0.278 Q 0.031 -0.278 0.031 -0.28800000000000003 Q 0.031 -0.304 0.049 -0.355 Q 0.056 -0.373 0.062 -0.385 Q 0.08600000000000001 -0.434 0.122 -0.441 Q 0.129 -0.442 0.136 -0.442 Q 0.19 -0.442 0.215 -0.398 L 0.215 -0.397 Q 0.223 -0.384 0.226 -0.367 Q 0.289 -0.442 0.357 -0.442 Q 0.428 -0.442 0.466 -0.378 Q 0.488 -0.333 0.49 -0.28200000000000003 Q 0.49 -0.17400000000000002 0.41400000000000003 -0.082 Q 0.34500000000000003 0.002 0.263 0.01 Q 0.256 0.011 0.249 0.011 Q 0.186 0.011 0.157 -0.053 Q 0.12 0.079 0.109 0.14100000000000001 Q 0.108 0.146 0.108 0.147 Q 0.108 0.158 0.121 0.161 L 0.122 0.161 L 0.122 0.161 Q 0.134 0.163 0.158 0.163 Q 0.18 0.163 0.182 0.17400000000000002 Q 0.182 0.194 0.164 0.194 L 0.066 0.191 L 0.065 0.191 L -0.017 0.194 L -0.019 0.194 Q -0.032 0.194 -0.032 0.182 Q -0.026000000000000002 0.164 -0.009000000000000001 0.163 Q 0.028 0.163 0.036000000000000004 0.15 L 0.037 0.149 Q 0.039 0.145 0.041 0.138 Q 0.042 0.133 0.045 0.122 M 0.221 -0.312 L 0.221 -0.312 L 0.17200000000000001 -0.116 Q 0.169 -0.10400000000000001 0.169 -0.1 Q 0.169 -0.077 0.187 -0.048 Q 0.198 -0.029 0.215 -0.019 Q 0.23 -0.011 0.248 -0.011 Q 0.299 -0.011 0.34400000000000003 -0.075 Q 0.357 -0.093 0.367 -0.114 Q 0.394 -0.171 0.41200000000000003 -0.268 Q 0.418 -0.303 0.418 -0.326 Q 0.418 -0.405 0.37 -0.418 Q 0.362 -0.42 0.354 -0.42 Q 0.316 -0.42 0.273 -0.382 Q 0.23 -0.34600000000000003 0.221 -0.312 Z"/></g><g transform="translate(16.660894736842106,14.844157894736842) scale(0.7,0.7)"><path fill="rgb(219,97,20)" stroke="none" paint-order="stroke fill markers" d=" M 0.294 -0.64 L 0.294 -0.079 Q 0.294 -0.049 0.306 -0.041 Q 0.323 -0.031 0.387 -0.031 L 0.419 -0.031 L 0.419 0 Q 0.384 -0.003 0.257 -0.003 Q 0.13 -0.003 0.095 0 L 0.095 -0.031 L 0.127 -0.031 Q 0.20400000000000001 -0.031 0.215 -0.049 L 0.216 -0.05 Q 0.22 -0.058 0.22 -0.079 L 0.22 -0.597 Q 0.168 -0.5710000000000001 0.089 -0.5710000000000001 L 0.089 -0.602 Q 0.209 -0.602 0.271 -0.666 Q 0.29 -0.666 0.293 -0.659 L 0.293 -0.659 L 0.293 -0.658 Q 0.294 -0.655 0.294 -0.64 Z"/></g></g><path fill="none" stroke="rgb(219,97,20)" paint-order="fill stroke markers" d=" M 288.4548872784751 486.0231301195372 L 354.14781769325316 156.75015618365632" stroke-opacity="0.8" stroke-linejoin="round" stroke-miterlimit="10" stroke-dasharray="9,8"/><g transform="scale(19,19)"><g transform="translate(23.526315789473685,24.694157894736843)"><path fill="rgb(219,97,20)" stroke="none" paint-order="stroke fill markers" d=" M 0.045 0.122 L 0.045 0.122 L 0.157 -0.323 Q 0.164 -0.353 0.164 -0.374 Q 0.164 -0.42 0.133 -0.42 Q 0.092 -0.42 0.066 -0.325 Q 0.063 -0.314 0.06 -0.301 Q 0.049 -0.279 0.043000000000000003 -0.278 Q 0.031 -0.278 0.031 -0.28800000000000003 Q 0.031 -0.304 0.049 -0.355 Q 0.056 -0.373 0.062 -0.385 Q 0.08600000000000001 -0.434 0.122 -0.441 Q 0.129 -0.442 0.136 -0.442 Q 0.19 -0.442 0.215 -0.398 L 0.215 -0.397 Q 0.223 -0.384 0.226 -0.367 Q 0.289 -0.442 0.357 -0.442 Q 0.428 -0.442 0.466 -0.378 Q 0.488 -0.333 0.49 -0.28200000000000003 Q 0.49 -0.17400000000000002 0.41400000000000003 -0.082 Q 0.34500000000000003 0.002 0.263 0.01 Q 0.256 0.011 0.249 0.011 Q 0.186 0.011 0.157 -0.053 Q 0.12 0.079 0.109 0.14100000000000001 Q 0.108 0.146 0.108 0.147 Q 0.108 0.158 0.121 0.161 L 0.122 0.161 L 0.122 0.161 Q 0.134 0.163 0.158 0.163 Q 0.18 0.163 0.182 0.17400000000000002 Q 0.182 0.194 0.164 0.194 L 0.066 0.191 L 0.065 0.191 L -0.017 0.194 L -0.019 0.194 Q -0.032 0.194 -0.032 0.182 Q -0.026000000000000002 0.164 -0.009000000000000001 0.163 Q 0.028 0.163 0.036000000000000004 0.15 L 0.037 0.149 Q 0.039 0.145 0.041 0.138 Q 0.042 0.133 0.045 0.122 M 0.221 -0.312 L 0.221 -0.312 L 0.17200000000000001 -0.116 Q 0.169 -0.10400000000000001 0.169 -0.1 Q 0.169 -0.077 0.187 -0.048 Q 0.198 -0.029 0.215 -0.019 Q 0.23 -0.011 0.248 -0.011 Q 0.299 -0.011 0.34400000000000003 -0.075 Q 0.357 -0.093 0.367 -0.114 Q 0.394 -0.171 0.41200000000000003 -0.268 Q 0.418 -0.303 0.418 -0.326 Q 0.418 -0.405 0.37 -0.418 Q 0.362 -0.42 0.354 -0.42 Q 0.316 -0.42 0.273 -0.382 Q 0.23 -0.34600000000000003 0.221 -0.312 Z"/></g><g transform="translate(24.029315789473685,24.844157894736842) scale(0.7,0.7)"><path fill="rgb(219,97,20)" stroke="none" paint-order="stroke fill markers" d=" M 0.449 -0.17400000000000002 L 0.449 -0.17400000000000002 L 0.421 0 L 0.05 0 Q 0.05 -0.025 0.056 -0.032 L 0.061 -0.037 L 0.253 -0.251 Q 0.358 -0.369 0.358 -0.47200000000000003 Q 0.358 -0.561 0.304 -0.607 L 0.303 -0.608 L 0.302 -0.608 Q 0.27 -0.635 0.224 -0.635 Q 0.152 -0.635 0.109 -0.5730000000000001 Q 0.097 -0.555 0.089 -0.533 Q 0.092 -0.534 0.10200000000000001 -0.534 Q 0.14200000000000002 -0.534 0.153 -0.498 L 0.153 -0.497 Q 0.155 -0.49 0.155 -0.482 Q 0.155 -0.442 0.117 -0.431 Q 0.109 -0.429 0.10300000000000001 -0.429 Q 0.066 -0.429 0.054 -0.46 Q 0.05 -0.47100000000000003 0.05 -0.485 Q 0.05 -0.562 0.109 -0.617 Q 0.162 -0.666 0.23700000000000002 -0.666 Q 0.34700000000000003 -0.666 0.40800000000000003 -0.592 Q 0.443 -0.549 0.448 -0.49 Q 0.449 -0.481 0.449 -0.47200000000000003 Q 0.449 -0.399 0.394 -0.333 Q 0.365 -0.299 0.304 -0.243 L 0.243 -0.189 L 0.233 -0.18 L 0.127 -0.077 L 0.307 -0.077 Q 0.395 -0.077 0.402 -0.085 Q 0.41200000000000003 -0.099 0.424 -0.17400000000000002 L 0.449 -0.17400000000000002 Z"/></g></g><path fill="none" stroke="rgb(219,97,20)" paint-order="fill stroke markers" d=" M 545.7647088873632 437.29238736151535 L 288.4548872784751 486.0231301195372" stroke-opacity="0.8" stroke-linejoin="round" stroke-miterlimit="10" stroke-dasharray="9,8"/><g transform="scale(19,19)"><g transform="translate(18.263157894736842,18.062578947368422)"><path fill="rgb(219,97,20)" stroke="none" paint-order="stroke fill markers" d=" M 0.452 -0.431 L 0.314 0.125 Q 0.31 0.14300000000000002 0.31 0.147 Q 0.31 0.158 0.323 0.161 L 0.323 0.161 Q 0.334 0.163 0.358 0.163 Q 0.382 0.163 0.384 0.17400000000000002 Q 0.384 0.194 0.366 0.194 L 0.264 0.191 L 0.263 0.191 L 0.164 0.194 L 0.163 0.194 Q 0.15 0.194 0.15 0.183 Q 0.158 0.164 0.17300000000000001 0.163 Q 0.225 0.162 0.23600000000000002 0.15 Q 0.241 0.14400000000000002 0.245 0.13 L 0.29 -0.049 Q 0.23 0.011 0.17200000000000001 0.011 Q 0.10200000000000001 0.011 0.065 -0.052000000000000005 Q 0.04 -0.093 0.04 -0.149 Q 0.04 -0.256 0.115 -0.34800000000000003 Q 0.184 -0.433 0.267 -0.441 Q 0.274 -0.442 0.281 -0.442 Q 0.34500000000000003 -0.442 0.374 -0.372 Q 0.395 -0.40800000000000003 0.428 -0.434 L 0.43 -0.435 Q 0.438 -0.441 0.442 -0.441 Q 0.452 -0.441 0.452 -0.431 M 0.17500000000000002 -0.011 Q 0.228 -0.011 0.28300000000000003 -0.076 Q 0.295 -0.091 0.302 -0.10300000000000001 Q 0.308 -0.111 0.356 -0.312 Q 0.36 -0.33 0.36 -0.332 Q 0.36 -0.354 0.342 -0.383 Q 0.32 -0.42 0.281 -0.42 Q 0.232 -0.42 0.188 -0.359 Q 0.17 -0.334 0.157 -0.304 Q 0.129 -0.234 0.115 -0.14300000000000002 Q 0.111 -0.12 0.111 -0.105 Q 0.111 -0.04 0.146 -0.019 L 0.147 -0.018000000000000002 Q 0.159 -0.011 0.17500000000000002 -0.011 Z"/></g><g transform="translate(18.709157894736844,18.21257894736842) scale(0.7,0.7)"><path fill="rgb(219,97,20)" stroke="none" paint-order="stroke fill markers" d=" M 0.294 -0.64 L 0.294 -0.079 Q 0.294 -0.049 0.306 -0.041 Q 0.323 -0.031 0.387 -0.031 L 0.419 -0.031 L 0.419 0 Q 0.384 -0.003 0.257 -0.003 Q 0.13 -0.003 0.095 0 L 0.095 -0.031 L 0.127 -0.031 Q 0.20400000000000001 -0.031 0.215 -0.049 L 0.216 -0.05 Q 0.22 -0.058 0.22 -0.079 L 0.22 -0.597 Q 0.168 -0.5710000000000001 0.089 -0.5710000000000001 L 0.089 -0.602 Q 0.209 -0.602 0.271 -0.666 Q 0.29 -0.666 0.293 -0.659 L 0.293 -0.659 L 0.293 -0.658 Q 0.294 -0.655 0.294 -0.64 Z"/></g></g><path fill="none" stroke="rgb(219,97,20)" paint-order="fill stroke markers" d=" M 321.30135248586413 321.3866431515968 L 393.2635125371599 335.74374363342224" stroke-opacity="0.8" stroke-linejoin="round" stroke-miterlimit="10" stroke-dasharray="9,8"/><g transform="scale(19,19)"><g transform="translate(21.57894736842105,21.431)"><path fill="rgb(219,97,20)" stroke="none" paint-order="stroke fill markers" d=" M 0.452 -0.431 L 0.314 0.125 Q 0.31 0.14300000000000002 0.31 0.147 Q 0.31 0.158 0.323 0.161 L 0.323 0.161 Q 0.334 0.163 0.358 0.163 Q 0.382 0.163 0.384 0.17400000000000002 Q 0.384 0.194 0.366 0.194 L 0.264 0.191 L 0.263 0.191 L 0.164 0.194 L 0.163 0.194 Q 0.15 0.194 0.15 0.183 Q 0.158 0.164 0.17300000000000001 0.163 Q 0.225 0.162 0.23600000000000002 0.15 Q 0.241 0.14400000000000002 0.245 0.13 L 0.29 -0.049 Q 0.23 0.011 0.17200000000000001 0.011 Q 0.10200000000000001 0.011 0.065 -0.052000000000000005 Q 0.04 -0.093 0.04 -0.149 Q 0.04 -0.256 0.115 -0.34800000000000003 Q 0.184 -0.433 0.267 -0.441 Q 0.274 -0.442 0.281 -0.442 Q 0.34500000000000003 -0.442 0.374 -0.372 Q 0.395 -0.40800000000000003 0.428 -0.434 L 0.43 -0.435 Q 0.438 -0.441 0.442 -0.441 Q 0.452 -0.441 0.452 -0.431 M 0.17500000000000002 -0.011 Q 0.228 -0.011 0.28300000000000003 -0.076 Q 0.295 -0.091 0.302 -0.10300000000000001 Q 0.308 -0.111 0.356 -0.312 Q 0.36 -0.33 0.36 -0.332 Q 0.36 -0.354 0.342 -0.383 Q 0.32 -0.42 0.281 -0.42 Q 0.232 -0.42 0.188 -0.359 Q 0.17 -0.334 0.157 -0.304 Q 0.129 -0.234 0.115 -0.14300000000000002 Q 0.111 -0.12 0.111 -0.105 Q 0.111 -0.04 0.146 -0.019 L 0.147 -0.018000000000000002 Q 0.159 -0.011 0.17500000000000002 -0.011 Z"/></g><g transform="translate(22.024947368421053,21.581) scale(0.7,0.7)"><path fill="rgb(219,97,20)" stroke="none" paint-order="stroke fill markers" d=" M 0.449 -0.17400000000000002 L 0.449 -0.17400000000000002 L 0.421 0 L 0.05 0 Q 0.05 -0.025 0.056 -0.032 L 0.061 -0.037 L 0.253 -0.251 Q 0.358 -0.369 0.358 -0.47200000000000003 Q 0.358 -0.561 0.304 -0.607 L 0.303 -0.608 L 0.302 -0.608 Q 0.27 -0.635 0.224 -0.635 Q 0.152 -0.635 0.109 -0.5730000000000001 Q 0.097 -0.555 0.089 -0.533 Q 0.092 -0.534 0.10200000000000001 -0.534 Q 0.14200000000000002 -0.534 0.153 -0.498 L 0.153 -0.497 Q 0.155 -0.49 0.155 -0.482 Q 0.155 -0.442 0.117 -0.431 Q 0.109 -0.429 0.10300000000000001 -0.429 Q 0.066 -0.429 0.054 -0.46 Q 0.05 -0.47100000000000003 0.05 -0.485 Q 0.05 -0.562 0.109 -0.617 Q 0.162 -0.666 0.23700000000000002 -0.666 Q 0.34700000000000003 -0.666 0.40800000000000003 -0.592 Q 0.443 -0.549 0.448 -0.49 Q 0.449 -0.481 0.449 -0.47200000000000003 Q 0.449 -0.399 0.394 -0.333 Q 0.365 -0.299 0.304 -0.243 L 0.243 -0.189 L 0.233 -0.18 L 0.127 -0.077 L 0.307 -0.077 Q 0.395 -0.077 0.402 -0.085 Q 0.41200000000000003 -0.099 0.424 -0.17400000000000002 L 0.449 -0.17400000000000002 Z"/></g></g><path fill="none" stroke="rgb(219,97,20)" paint-order="fill stroke markers" d=" M 417.10979808291916 461.6577587405263 L 393.2635125371599 335.74374363342224" stroke-opacity="0.8" stroke-linejoin="round" stroke-miterlimit="10" stroke-dasharray="9,8"/><path fill="none" stroke="rgb(21,101,192)" paint-order="fill stroke markers" d=" M 336.758085498143 408.02321650057155 L 344.96031431749196 413.7436572523879" stroke-opacity="0.8" stroke-linecap="round" stroke-linejoin="round" stroke-miterlimit="10" stroke-width="1.5"/><g transform="scale(19,19)"><g transform="translate(17.157894736842106,21.115210526315792)"><path fill="rgb(21,101,192)" stroke="none" paint-order="stroke fill markers" d=" M 0.373 -0.378 Q 0.378 -0.41200000000000003 0.404 -0.42 Q 0.40900000000000003 -0.422 0.41500000000000004 -0.422 Q 0.441 -0.422 0.444 -0.395 Q 0.444 -0.389 0.437 -0.361 L 0.401 -0.221 Q 0.386 -0.158 0.379 -0.131 Q 0.366 -0.079 0.366 -0.057 Q 0.366 -0.011 0.396 -0.011 Q 0.434 -0.011 0.46 -0.091 Q 0.465 -0.108 0.47200000000000003 -0.135 Q 0.48 -0.152 0.486 -0.153 Q 0.498 -0.153 0.498 -0.14300000000000002 Q 0.498 -0.128 0.48 -0.073 Q 0.47400000000000003 -0.056 0.468 -0.044 Q 0.44 0.011 0.394 0.011 Q 0.338 0.011 0.313 -0.037 Q 0.306 -0.049 0.303 -0.064 Q 0.24 0.011 0.17300000000000001 0.011 Q 0.098 0.011 0.062 -0.057 Q 0.04 -0.097 0.04 -0.149 Q 0.04 -0.257 0.115 -0.34900000000000003 Q 0.185 -0.433 0.267 -0.441 Q 0.274 -0.442 0.281 -0.442 Q 0.342 -0.442 0.373 -0.378 M 0.308 -0.11900000000000001 L 0.308 -0.11900000000000001 L 0.358 -0.315 Q 0.361 -0.33 0.361 -0.332 Q 0.361 -0.353 0.343 -0.383 Q 0.321 -0.42 0.28200000000000003 -0.42 Q 0.23 -0.42 0.183 -0.352 Q 0.17400000000000002 -0.339 0.166 -0.324 Q 0.137 -0.266 0.117 -0.159 Q 0.111 -0.125 0.111 -0.105 Q 0.111 -0.037 0.149 -0.017 Q 0.16 -0.011 0.17500000000000002 -0.011 Q 0.231 -0.011 0.28800000000000003 -0.082 Q 0.302 -0.098 0.307 -0.115 L 0.307 -0.116 Q 0.308 -0.11800000000000001 0.308 -0.11900000000000001 Z"/></g><g transform="translate(17.686894736842106,21.26521052631579) scale(0.7,0.7)"><path fill="rgb(21,101,192)" stroke="none" paint-order="stroke fill markers" d=" M 0.294 -0.64 L 0.294 -0.079 Q 0.294 -0.049 0.306 -0.041 Q 0.323 -0.031 0.387 -0.031 L 0.419 -0.031 L 0.419 0 Q 0.384 -0.003 0.257 -0.003 Q 0.13 -0.003 0.095 0 L 0.095 -0.031 L 0.127 -0.031 Q 0.20400000000000001 -0.031 0.215 -0.049 L 0.216 -0.05 Q 0.22 -0.058 0.22 -0.079 L 0.22 -0.597 Q 0.168 -0.5710000000000001 0.089 -0.5710000000000001 L 0.089 -0.602 Q 0.209 -0.602 0.271 -0.666 Q 0.29 -0.666 0.293 -0.659 L 0.293 -0.659 L 0.293 -0.658 Q 0.294 -0.655 0.294 -0.64 Z"/></g></g><path fill="rgb(21,101,192)" stroke="none" paint-order="stroke fill markers" d=" M 393.4245256126746 335.0110300760514 C 393.52124651625513 335.03232459774046 393.61205992171335 335.0725344129051 393.69207466412456 335.128248300062 L 393.69207466994743 335.128248300062 C 393.6087953561089 335.0702598754702 393.5178551076207 335.0315003717257 393.424525652017 335.0110300760514 Z M 393.69377495263313 335.12943567492465 C 393.7733821096698 335.18519119179774 393.84222478461345 335.2563282010131 393.89545837255116 335.33946795321117 L 393.8954583875574 335.33946795321117 C 393.8441575468998 335.2592067159196 393.77661937763935 335.187454796823 393.6937749920025 335.12943567492465 Z M 390.50318009377764 338.39054638429184 L 287.83972011702394 485.59409706315097 C 287.6027717028085 485.93384450501713 287.6861067802227 486.40134886677293 288.02585422208887 486.63829728098835 C 288.1565406126548 486.72944125792026 288.3061300917666 486.7731956515146 288.454229481503 486.7731956515146 C 288.6911463783668 486.7731956515146 288.92425000264274 486.66122422722367 289.07005443992625 486.45216317592343 L 391.73351441668 339.24861249706424 L 391.7335144166799 339.24861249706424 L 390.5031800937776 338.39054638429184 Z" fill-opacity="0.8"/><path fill="rgb(21,101,192)" stroke="none" paint-order="stroke fill markers" d=" M 393.2643858607621 334.99361659558065 C 393.220699167867 334.99361659558065 393.176406423155 334.99744833780085 393.1318958492584 335.00538257847296 L 388.95509497790874 335.7499189987327 C 388.65645580814385 335.8031529797758 388.419289950661 336.03104109580244 388.3541874736565 336.32731947493846 C 388.28908499665204 336.62359785407443 388.4088667183703 336.92991954204956 388.657678609424 337.10344721513314 L 393.5790159010335 340.53571166622294 C 393.7077002199494 340.6254593480128 393.8577920826614 340.67054479331995 394.0080778191851 340.67054479331995 C 394.14837044230836 340.67054479331995 394.2888320135238 340.6312558357169 394.41220546434147 340.5523336451603 C 394.6677403183094 340.38886759711613 394.799643993412 340.0875669866352 394.7464100123689 339.7889278168703 L 394.0018735921092 335.6121269455207 C 393.93711794323 335.2488519688998 393.6209366969065 334.99361659558065 393.2643858607621 334.99361659558065 Z" fill-opacity="0.8"/><path fill="none" stroke="rgb(21,101,192)" paint-order="fill stroke markers" d=" M 378.5903881493759 245.17948521148585 L 368.82094208103723 247.3144146055927" stroke-opacity="0.8" stroke-linecap="round" stroke-linejoin="round" stroke-miterlimit="10" stroke-width="1.5"/><g transform="scale(19,19)"><g transform="translate(20.05263157894737,13.536263157894735)"><path fill="rgb(21,101,192)" stroke="none" paint-order="stroke fill markers" d=" M 0.373 -0.378 Q 0.378 -0.41200000000000003 0.404 -0.42 Q 0.40900000000000003 -0.422 0.41500000000000004 -0.422 Q 0.441 -0.422 0.444 -0.395 Q 0.444 -0.389 0.437 -0.361 L 0.401 -0.221 Q 0.386 -0.158 0.379 -0.131 Q 0.366 -0.079 0.366 -0.057 Q 0.366 -0.011 0.396 -0.011 Q 0.434 -0.011 0.46 -0.091 Q 0.465 -0.108 0.47200000000000003 -0.135 Q 0.48 -0.152 0.486 -0.153 Q 0.498 -0.153 0.498 -0.14300000000000002 Q 0.498 -0.128 0.48 -0.073 Q 0.47400000000000003 -0.056 0.468 -0.044 Q 0.44 0.011 0.394 0.011 Q 0.338 0.011 0.313 -0.037 Q 0.306 -0.049 0.303 -0.064 Q 0.24 0.011 0.17300000000000001 0.011 Q 0.098 0.011 0.062 -0.057 Q 0.04 -0.097 0.04 -0.149 Q 0.04 -0.257 0.115 -0.34900000000000003 Q 0.185 -0.433 0.267 -0.441 Q 0.274 -0.442 0.281 -0.442 Q 0.342 -0.442 0.373 -0.378 M 0.308 -0.11900000000000001 L 0.308 -0.11900000000000001 L 0.358 -0.315 Q 0.361 -0.33 0.361 -0.332 Q 0.361 -0.353 0.343 -0.383 Q 0.321 -0.42 0.28200000000000003 -0.42 Q 0.23 -0.42 0.183 -0.352 Q 0.17400000000000002 -0.339 0.166 -0.324 Q 0.137 -0.266 0.117 -0.159 Q 0.111 -0.125 0.111 -0.105 Q 0.111 -0.037 0.149 -0.017 Q 0.16 -0.011 0.17500000000000002 -0.011 Q 0.231 -0.011 0.28800000000000003 -0.082 Q 0.302 -0.098 0.307 -0.115 L 0.307 -0.116 Q 0.308 -0.11800000000000001 0.308 -0.11900000000000001 Z"/></g><g transform="translate(20.58163157894737,13.686263157894736) scale(0.7,0.7)"><path fill="rgb(21,101,192)" stroke="none" paint-order="stroke fill markers" d=" M 0.449 -0.17400000000000002 L 0.449 -0.17400000000000002 L 0.421 0 L 0.05 0 Q 0.05 -0.025 0.056 -0.032 L 0.061 -0.037 L 0.253 -0.251 Q 0.358 -0.369 0.358 -0.47200000000000003 Q 0.358 -0.561 0.304 -0.607 L 0.303 -0.608 L 0.302 -0.608 Q 0.27 -0.635 0.224 -0.635 Q 0.152 -0.635 0.109 -0.5730000000000001 Q 0.097 -0.555 0.089 -0.533 Q 0.092 -0.534 0.10200000000000001 -0.534 Q 0.14200000000000002 -0.534 0.153 -0.498 L 0.153 -0.497 Q 0.155 -0.49 0.155 -0.482 Q 0.155 -0.442 0.117 -0.431 Q 0.109 -0.429 0.10300000000000001 -0.429 Q 0.066 -0.429 0.054 -0.46 Q 0.05 -0.47100000000000003 0.05 -0.485 Q 0.05 -0.562 0.109 -0.617 Q 0.162 -0.666 0.23700000000000002 -0.666 Q 0.34700000000000003 -0.666 0.40800000000000003 -0.592 Q 0.443 -0.549 0.448 -0.49 Q 0.449 -0.481 0.449 -0.47200000000000003 Q 0.449 -0.399 0.394 -0.333 Q 0.365 -0.299 0.304 -0.243 L 0.243 -0.189 L 0.233 -0.18 L 0.127 -0.077 L 0.307 -0.077 Q 0.395 -0.077 0.402 -0.085 Q 0.41200000000000003 -0.099 0.424 -0.17400000000000002 L 0.449 -0.17400000000000002 Z"/></g></g><path fill="rgb(21,101,192)" stroke="none" paint-order="stroke fill markers" d=" M 354.14853887740605 155.99999803957593 C 354.0954966872719 155.99999803957593 354.0416411489148 156.00565946156485 353.9876979886951 156.0174477285309 C 353.5830342828573 156.1058793995057 353.32667756715296 156.50561218237647 353.41510923812774 156.91027588821433 L 391.7302055592444 332.24032106235325 L 391.73020555924427 332.24032106235325 L 393.19562246949533 331.92008165323716 L 393.1956224694952 331.92008165323716 L 354.8805261483786 156.5900364790983 C 354.80388274436984 156.2393159334801 354.4934016141992 155.99999803957593 354.14853887740605 155.99999803957593 Z M 393.69192800326135 336.3595800934418 L 393.6919280032613 336.3595800934418 C 393.61045123593857 336.4162126365692 393.5190663000065 336.4555967631982 393.42363224171766 336.47645208854766 L 393.42363224171794 336.47645208854766 C 393.52297030508515 336.4547436160352 393.61337110644 336.41427554494106 393.6919280426306 336.3595800934418 Z M 393.4227426526732 336.47664592942635 C 393.37032246411405 336.48803513860105 393.31668674444364 336.4938357547922 393.2628057127694 336.4938357547922 C 393.21888436892 336.4938357547922 393.174800021081 336.48998138335435 393.13107818892024 336.4821577980016 L 393.13107789589714 336.4821577980016 C 393.1741186199973 336.4898947385908 393.2181671508678 336.49390177750263 393.262791353007 336.49390177750263 C 393.31554197641333 336.49390177750263 393.369097030858 336.4883024248014 393.42274269201545 336.47664592942635 Z" fill-opacity="0.8"/><path fill="rgb(21,101,192)" stroke="none" paint-order="stroke fill markers" d=" M 395.5539391827844 331.42239601216215 C 395.5007788852989 331.42239601216215 395.44710402067733 331.4280625448574 395.3937478348714 331.43972253956315 L 389.5320801938682 332.72068017602726 C 389.23572728731705 332.78544255117106 389.0075671099065 333.0223466896443 388.9539903953084 333.32092456241526 C 388.90041368071013 333.6195024351862 389.0319714455923 333.9209542420824 389.28731851006887 334.0847134772991 L 392.85863114880254 336.37506847956865 C 392.9839683879803 336.45544978520064 393.1241987347552 336.4938357547922 393.2628057127694 336.4938357547922 C 393.5097844209443 336.4938357547922 393.7516088726582 336.37195886731774 393.8948373833063 336.1486250217796 L 396.1851923855759 332.57731238304586 C 396.34895162079255 332.32196531856937 396.34276870663075 331.99311518712 396.1695267262882 331.7441042903654 C 396.0274757047256 331.53992599481427 395.7960437816739 331.4223960121622 395.5539391827844 331.42239601216215 Z" fill-opacity="0.8"/><path fill="none" stroke="rgb(21,101,192)" paint-order="fill stroke markers" d=" M 466.74285501436407 390.67981294978625 L 472.285366410159 382.35631804515134" stroke-opacity="0.8" stroke-linecap="round" stroke-linejoin="round" stroke-miterlimit="10" stroke-width="1.5"/><g transform="scale(19,19)"><g transform="translate(25.05263157894737,20.273105263157895)"><path fill="rgb(21,101,192)" stroke="none" paint-order="stroke fill markers" d=" M 0.373 -0.378 Q 0.378 -0.41200000000000003 0.404 -0.42 Q 0.40900000000000003 -0.422 0.41500000000000004 -0.422 Q 0.441 -0.422 0.444 -0.395 Q 0.444 -0.389 0.437 -0.361 L 0.401 -0.221 Q 0.386 -0.158 0.379 -0.131 Q 0.366 -0.079 0.366 -0.057 Q 0.366 -0.011 0.396 -0.011 Q 0.434 -0.011 0.46 -0.091 Q 0.465 -0.108 0.47200000000000003 -0.135 Q 0.48 -0.152 0.486 -0.153 Q 0.498 -0.153 0.498 -0.14300000000000002 Q 0.498 -0.128 0.48 -0.073 Q 0.47400000000000003 -0.056 0.468 -0.044 Q 0.44 0.011 0.394 0.011 Q 0.338 0.011 0.313 -0.037 Q 0.306 -0.049 0.303 -0.064 Q 0.24 0.011 0.17300000000000001 0.011 Q 0.098 0.011 0.062 -0.057 Q 0.04 -0.097 0.04 -0.149 Q 0.04 -0.257 0.115 -0.34900000000000003 Q 0.185 -0.433 0.267 -0.441 Q 0.274 -0.442 0.281 -0.442 Q 0.342 -0.442 0.373 -0.378 M 0.308 -0.11900000000000001 L 0.308 -0.11900000000000001 L 0.358 -0.315 Q 0.361 -0.33 0.361 -0.332 Q 0.361 -0.353 0.343 -0.383 Q 0.321 -0.42 0.28200000000000003 -0.42 Q 0.23 -0.42 0.183 -0.352 Q 0.17400000000000002 -0.339 0.166 -0.324 Q 0.137 -0.266 0.117 -0.159 Q 0.111 -0.125 0.111 -0.105 Q 0.111 -0.037 0.149 -0.017 Q 0.16 -0.011 0.17500000000000002 -0.011 Q 0.231 -0.011 0.28800000000000003 -0.082 Q 0.302 -0.098 0.307 -0.115 L 0.307 -0.116 Q 0.308 -0.11800000000000001 0.308 -0.11900000000000001 Z"/></g><g transform="translate(25.58163157894737,20.423105263157893) scale(0.7,0.7)"><path fill="rgb(21,101,192)" stroke="none" paint-order="stroke fill markers" d=" M 0.29 -0.352 L 0.29 -0.352 Q 0.39 -0.332 0.434 -0.254 Q 0.457 -0.215 0.457 -0.171 Q 0.457 -0.08600000000000001 0.387 -0.028 Q 0.326 0.022 0.244 0.022 Q 0.145 0.022 0.085 -0.037 Q 0.042 -0.079 0.042 -0.135 Q 0.042 -0.182 0.084 -0.191 Q 0.091 -0.193 0.098 -0.193 Q 0.136 -0.193 0.149 -0.161 Q 0.153 -0.148 0.154 -0.137 Q 0.154 -0.097 0.11800000000000001 -0.085 Q 0.10400000000000001 -0.08 0.088 -0.082 Q 0.125 -0.02 0.216 -0.008 Q 0.229 -0.006 0.241 -0.006 Q 0.305 -0.006 0.335 -0.069 Q 0.354 -0.109 0.354 -0.171 Q 0.354 -0.304 0.274 -0.331 Q 0.256 -0.337 0.23500000000000001 -0.337 L 0.191 -0.337 Q 0.169 -0.337 0.167 -0.34800000000000003 Q 0.167 -0.358 0.182 -0.36 Q 0.197 -0.36 0.221 -0.363 Q 0.272 -0.365 0.301 -0.402 L 0.301 -0.403 L 0.302 -0.404 L 0.303 -0.405 L 0.304 -0.405 L 0.31 -0.41500000000000004 Q 0.338 -0.462 0.338 -0.529 Q 0.338 -0.622 0.266 -0.638 Q 0.254 -0.641 0.242 -0.641 Q 0.17200000000000001 -0.641 0.128 -0.601 Q 0.117 -0.591 0.109 -0.579 Q 0.171 -0.579 0.171 -0.529 Q 0.171 -0.493 0.14 -0.481 Q 0.131 -0.47800000000000004 0.12 -0.47800000000000004 Q 0.081 -0.47800000000000004 0.07100000000000001 -0.513 L 0.07100000000000001 -0.513 L 0.07100000000000001 -0.514 Q 0.069 -0.522 0.069 -0.53 Q 0.069 -0.597 0.135 -0.637 Q 0.183 -0.666 0.246 -0.666 Q 0.337 -0.666 0.393 -0.612 L 0.395 -0.61 Q 0.43 -0.5740000000000001 0.43 -0.528 Q 0.43 -0.445 0.359 -0.389 Q 0.328 -0.365 0.29 -0.352 Z"/></g></g><path fill="rgb(21,101,192)" stroke="none" paint-order="stroke fill markers" d=" M 392.84571437177306 335.12065529026154 C 392.7661891570197 335.17393352110633 392.69560814355305 335.24341977741767 392.6392504193123 335.3280552787376 C 392.69339328105923 335.24674595852315 392.763322627063 335.1759486611904 392.8457144110576 335.12065529026154 Z M 392.6382504076217 335.3295608973528 L 392.6382504076216 335.3295608973528 C 392.58244946312504 335.4137902620003 392.5458790910811 335.505185887693 392.5274988597184 335.5985601731916 L 392.5274988550171 335.5985601731916 C 392.5466239003471 335.501806907918 392.5846291067082 335.410506559437 392.63825044688554 335.3295608973528 Z M 396.8005114810826 337.19792328899774 L 395.96913477171336 338.446447524693 L 395.9691347717134 338.446447524693 L 545.3490205326785 437.91664947936295 C 545.4768100765531 438.00174294206136 545.6211996859096 438.0424674393158 545.7640180128362 438.0424674393158 C 546.0065171149013 438.0424674393158 546.2444861289346 437.92505661990987 546.3889710052108 437.7080757162 C 546.6185493441855 437.3633052686157 546.5251676896322 436.89770358264235 546.1803972420479 436.66812524366776 L 396.8005114810826 337.19792328899774 Z" fill-opacity="0.8"/><path fill="rgb(21,101,192)" stroke="none" paint-order="stroke fill markers" d=" M 397.4234193203361 334.159415119032 C 397.37446956578015 334.159415119032 397.3250589853128 334.164219224161 397.2758305049788 334.1740925495445 L 393.11602861484977 335.00838760219654 C 392.7099026931078 335.0898407233336 392.44670338479716 335.48510163399027 392.52815650593425 335.8912275557323 L 393.36245155858626 340.0510294458613 C 393.4221032368771 340.34845319698525 393.65504497182803 340.58065738622355 393.9526563969689 340.6393655635176 C 394.001120209438 340.64892575460715 394.0497447249158 340.65357864312824 394.0979184776727 340.65357864312824 C 394.3455749223754 340.6535786431282 394.5813182255582 340.5306081381027 394.72206970765956 340.31923387823576 L 398.0475765451365 335.3251369354548 C 398.2157067902135 335.07264647792044 398.2151852666386 334.743738640685 398.0462551600387 334.4917826335336 C 397.9052857405028 334.28152945373273 397.6702093391355 334.159415119032 397.4234193203361 334.159415119032 Z" fill-opacity="0.8"/><path fill="rgb(21,101,192)" stroke="none" paint-order="stroke fill markers" d=" M 495.6968899687796 286.4292197256191 C 495.6968899687796 287.53378922528066 494.8014594684412 288.4292197256191 493.6968899687796 288.4292197256191 C 492.592320469118 288.4292197256191 491.6968899687796 287.53378922528066 491.6968899687796 286.4292197256191 C 491.6968899687796 285.3246502259575 492.592320469118 284.4292197256191 493.6968899687796 284.4292197256191 C 494.8014594684412 284.4292197256191 495.6968899687796 285.3246502259575 495.6968899687796 286.4292197256191 Z" fill-opacity="1"/><path fill="none" stroke="rgb(0,0,0)" paint-order="fill stroke markers" d=" M 495.6968899687796 286.4292197256191 C 495.6968899687796 287.53378922528066 494.8014594684412 288.4292197256191 493.6968899687796 288.4292197256191 C 492.592320469118 288.4292197256191 491.6968899687796 287.53378922528066 491.6968899687796 286.4292197256191 C 491.6968899687796 285.3246502259575 492.592320469118 284.4292197256191 493.6968899687796 284.4292197256191 C 494.8014594684412 284.4292197256191 495.6968899687796 285.3246502259575 495.6968899687796 286.4292197256191 Z" stroke-opacity="1" stroke-linecap="round" stroke-linejoin="round" stroke-miterlimit="10"/><text fill="rgb(21,101,192)" stroke="none" font-family="geogebra-sans-serif, sans-serif" font-size="16px" font-style="normal" font-weight="normal" text-decoration="normal" x="505" y="287" text-anchor="start" dominant-baseline="alphabetic" fill-opacity="1">D</text><text fill="none" stroke="rgb(255,255,255)" font-family="geogebra-sans-serif, sans-serif" font-size="16px" font-style="normal" font-weight="normal" text-decoration="normal" x="505" y="287" text-anchor="start" dominant-baseline="alphabetic" stroke-opacity="1" stroke-linejoin="bevel" stroke-miterlimit="10" stroke-width="3">D</text><text fill="rgb(21,101,192)" stroke="none" font-family="geogebra-sans-serif, sans-serif" font-size="16px" font-style="normal" font-weight="normal" text-decoration="normal" x="505" y="287" text-anchor="start" dominant-baseline="alphabetic" fill-opacity="1">D</text><path fill="rgb(21,101,192)" stroke="none" paint-order="stroke fill markers" d=" M 547.7647088873632 437.29238736151535 C 547.7647088873632 438.39695686117693 546.8692783870248 439.29238736151535 545.7647088873632 439.29238736151535 C 544.6601393877016 439.29238736151535 543.7647088873632 438.39695686117693 543.7647088873632 437.29238736151535 C 543.7647088873632 436.1878178618538 544.6601393877016 435.29238736151535 545.7647088873632 435.29238736151535 C 546.8692783870248 435.29238736151535 547.7647088873632 436.1878178618538 547.7647088873632 437.29238736151535 Z" fill-opacity="1"/><path fill="none" stroke="rgb(0,0,0)" paint-order="fill stroke markers" d=" M 547.7647088873632 437.29238736151535 C 547.7647088873632 438.39695686117693 546.8692783870248 439.29238736151535 545.7647088873632 439.29238736151535 C 544.6601393877016 439.29238736151535 543.7647088873632 438.39695686117693 543.7647088873632 437.29238736151535 C 543.7647088873632 436.1878178618538 544.6601393877016 435.29238736151535 545.7647088873632 435.29238736151535 C 546.8692783870248 435.29238736151535 547.7647088873632 436.1878178618538 547.7647088873632 437.29238736151535 Z" stroke-opacity="1" stroke-linecap="round" stroke-linejoin="round" stroke-miterlimit="10"/><text fill="rgb(21,101,192)" stroke="none" font-family="geogebra-sans-serif, sans-serif" font-size="16px" font-style="normal" font-weight="normal" text-decoration="normal" x="561" y="463" text-anchor="start" dominant-baseline="alphabetic" fill-opacity="1">C</text><text fill="none" stroke="rgb(255,255,255)" font-family="geogebra-sans-serif, sans-serif" font-size="16px" font-style="normal" font-weight="normal" text-decoration="normal" x="561" y="463" text-anchor="start" dominant-baseline="alphabetic" stroke-opacity="1" stroke-linejoin="bevel" stroke-miterlimit="10" stroke-width="3">C</text><text fill="rgb(21,101,192)" stroke="none" font-family="geogebra-sans-serif, sans-serif" font-size="16px" font-style="normal" font-weight="normal" text-decoration="normal" x="561" y="463" text-anchor="start" dominant-baseline="alphabetic" fill-opacity="1">C</text><path fill="rgb(21,101,192)" stroke="none" paint-order="stroke fill markers" d=" M 395.2635125371599 335.74374363342224 C 395.2635125371599 336.8483131330838 394.3680820368215 337.74374363342224 393.2635125371599 337.74374363342224 C 392.1589430374983 337.74374363342224 391.2635125371599 336.8483131330838 391.2635125371599 335.74374363342224 C 391.2635125371599 334.63917413376066 392.1589430374983 333.74374363342224 393.2635125371599 333.74374363342224 C 394.3680820368215 333.74374363342224 395.2635125371599 334.63917413376066 395.2635125371599 335.74374363342224 Z" fill-opacity="1"/><path fill="none" stroke="rgb(0,0,0)" paint-order="fill stroke markers" d=" M 395.2635125371599 335.74374363342224 C 395.2635125371599 336.8483131330838 394.3680820368215 337.74374363342224 393.2635125371599 337.74374363342224 C 392.1589430374983 337.74374363342224 391.2635125371599 336.8483131330838 391.2635125371599 335.74374363342224 C 391.2635125371599 334.63917413376066 392.1589430374983 333.74374363342224 393.2635125371599 333.74374363342224 C 394.3680820368215 333.74374363342224 395.2635125371599 334.63917413376066 395.2635125371599 335.74374363342224 Z" stroke-opacity="1" stroke-linecap="round" stroke-linejoin="round" stroke-miterlimit="10"/><text fill="rgb(21,101,192)" stroke="none" font-family="geogebra-sans-serif, sans-serif" font-size="16px" font-style="normal" font-weight="normal" text-decoration="normal" x="397" y="328" text-anchor="start" dominant-baseline="alphabetic" fill-opacity="1">O</text><text fill="none" stroke="rgb(255,255,255)" font-family="geogebra-sans-serif, sans-serif" font-size="16px" font-style="normal" font-weight="normal" text-decoration="normal" x="397" y="328" text-anchor="start" dominant-baseline="alphabetic" stroke-opacity="1" stroke-linejoin="bevel" stroke-miterlimit="10" stroke-width="3">O</text><text fill="rgb(21,101,192)" stroke="none" font-family="geogebra-sans-serif, sans-serif" font-size="16px" font-style="normal" font-weight="normal" text-decoration="normal" x="397" y="328" text-anchor="start" dominant-baseline="alphabetic" fill-opacity="1">O</text><path fill="rgb(21,101,192)" stroke="none" paint-order="stroke fill markers" d=" M 290.4548872784751 486.0231301195372 C 290.4548872784751 487.1276996191988 289.5594567781367 488.0231301195372 288.4548872784751 488.0231301195372 C 287.3503177788135 488.0231301195372 286.4548872784751 487.1276996191988 286.4548872784751 486.0231301195372 C 286.4548872784751 484.9185606198756 287.3503177788135 484.0231301195372 288.4548872784751 484.0231301195372 C 289.5594567781367 484.0231301195372 290.4548872784751 484.9185606198756 290.4548872784751 486.0231301195372 Z" fill-opacity="1"/><path fill="none" stroke="rgb(0,0,0)" paint-order="fill stroke markers" d=" M 290.4548872784751 486.0231301195372 C 290.4548872784751 487.1276996191988 289.5594567781367 488.0231301195372 288.4548872784751 488.0231301195372 C 287.3503177788135 488.0231301195372 286.4548872784751 487.1276996191988 286.4548872784751 486.0231301195372 C 286.4548872784751 484.9185606198756 287.3503177788135 484.0231301195372 288.4548872784751 484.0231301195372 C 289.5594567781367 484.0231301195372 290.4548872784751 484.9185606198756 290.4548872784751 486.0231301195372 Z" stroke-opacity="1" stroke-linecap="round" stroke-linejoin="round" stroke-miterlimit="10"/><text fill="rgb(21,101,192)" stroke="none" font-family="geogebra-sans-serif, sans-serif" font-size="16px" font-style="normal" font-weight="normal" text-decoration="normal" x="261" y="509" text-anchor="start" dominant-baseline="alphabetic" fill-opacity="1">A</text><text fill="none" stroke="rgb(255,255,255)" font-family="geogebra-sans-serif, sans-serif" font-size="16px" font-style="normal" font-weight="normal" text-decoration="normal" x="261" y="509" text-anchor="start" dominant-baseline="alphabetic" stroke-opacity="1" stroke-linejoin="bevel" stroke-miterlimit="10" stroke-width="3">A</text><text fill="rgb(21,101,192)" stroke="none" font-family="geogebra-sans-serif, sans-serif" font-size="16px" font-style="normal" font-weight="normal" text-decoration="normal" x="261" y="509" text-anchor="start" dominant-baseline="alphabetic" fill-opacity="1">A</text><path fill="rgb(21,101,192)" stroke="none" paint-order="stroke fill markers" d=" M 356.14781769325316 156.75015618365632 C 356.14781769325316 157.8547256833179 355.25238719291474 158.75015618365632 354.14781769325316 158.75015618365632 C 353.0432481935916 158.75015618365632 352.14781769325316 157.8547256833179 352.14781769325316 156.75015618365632 C 352.14781769325316 155.64558668399474 353.0432481935916 154.75015618365632 354.14781769325316 154.75015618365632 C 355.25238719291474 154.75015618365632 356.14781769325316 155.64558668399474 356.14781769325316 156.75015618365632 Z" fill-opacity="1"/><path fill="none" stroke="rgb(0,0,0)" paint-order="fill stroke markers" d=" M 356.14781769325316 156.75015618365632 C 356.14781769325316 157.8547256833179 355.25238719291474 158.75015618365632 354.14781769325316 158.75015618365632 C 353.0432481935916 158.75015618365632 352.14781769325316 157.8547256833179 352.14781769325316 156.75015618365632 C 352.14781769325316 155.64558668399474 353.0432481935916 154.75015618365632 354.14781769325316 154.75015618365632 C 355.25238719291474 154.75015618365632 356.14781769325316 155.64558668399474 356.14781769325316 156.75015618365632 Z" stroke-opacity="1" stroke-linecap="round" stroke-linejoin="round" stroke-miterlimit="10"/><text fill="rgb(21,101,192)" stroke="none" font-family="geogebra-sans-serif, sans-serif" font-size="16px" font-style="normal" font-weight="normal" text-decoration="normal" x="358" y="150" text-anchor="start" dominant-baseline="alphabetic" fill-opacity="1">B</text><text fill="none" stroke="rgb(255,255,255)" font-family="geogebra-sans-serif, sans-serif" font-size="16px" font-style="normal" font-weight="normal" text-decoration="normal" x="358" y="150" text-anchor="start" dominant-baseline="alphabetic" stroke-opacity="1" stroke-linejoin="bevel" stroke-miterlimit="10" stroke-width="3">B</text><text fill="rgb(21,101,192)" stroke="none" font-family="geogebra-sans-serif, sans-serif" font-size="16px" font-style="normal" font-weight="normal" text-decoration="normal" x="358" y="150" text-anchor="start" dominant-baseline="alphabetic" fill-opacity="1">B</text><path fill="rgb(97,97,97)" stroke="none" paint-order="stroke fill markers" d=" M 325.30135248586413 321.3866431515968 C 325.30135248586413 323.59578215091994 323.5104914851873 325.3866431515968 321.30135248586413 325.3866431515968 C 319.09221348654097 325.3866431515968 317.30135248586413 323.59578215091994 317.30135248586413 321.3866431515968 C 317.30135248586413 319.1775041522736 319.09221348654097 317.3866431515968 321.30135248586413 317.3866431515968 C 323.5104914851873 317.3866431515968 325.30135248586413 319.1775041522736 325.30135248586413 321.3866431515968 Z" fill-opacity="1"/><path fill="none" stroke="rgb(0,0,0)" paint-order="fill stroke markers" d=" M 325.30135248586413 321.3866431515968 C 325.30135248586413 323.59578215091994 323.5104914851873 325.3866431515968 321.30135248586413 325.3866431515968 C 319.09221348654097 325.3866431515968 317.30135248586413 323.59578215091994 317.30135248586413 321.3866431515968 C 317.30135248586413 319.1775041522736 319.09221348654097 317.3866431515968 321.30135248586413 317.3866431515968 C 323.5104914851873 317.3866431515968 325.30135248586413 319.1775041522736 325.30135248586413 321.3866431515968 Z" stroke-opacity="1" stroke-linecap="round" stroke-linejoin="round" stroke-miterlimit="10"/><path fill="rgb(97,97,97)" stroke="none" paint-order="stroke fill markers" d=" M 421.10979808291916 461.6577587405263 C 421.10979808291916 463.86689773984943 419.3189370822423 465.6577587405263 417.10979808291916 465.6577587405263 C 414.900659083596 465.6577587405263 413.10979808291916 463.86689773984943 413.10979808291916 461.6577587405263 C 413.10979808291916 459.4486197412031 414.900659083596 457.6577587405263 417.10979808291916 457.6577587405263 C 419.3189370822423 457.6577587405263 421.10979808291916 459.4486197412031 421.10979808291916 461.6577587405263 Z" fill-opacity="1"/><path fill="none" stroke="rgb(0,0,0)" paint-order="fill stroke markers" d=" M 421.10979808291916 461.6577587405263 C 421.10979808291916 463.86689773984943 419.3189370822423 465.6577587405263 417.10979808291916 465.6577587405263 C 414.900659083596 465.6577587405263 413.10979808291916 463.86689773984943 413.10979808291916 461.6577587405263 C 413.10979808291916 459.4486197412031 414.900659083596 457.6577587405263 417.10979808291916 457.6577587405263 C 419.3189370822423 457.6577587405263 421.10979808291916 459.4486197412031 421.10979808291916 461.6577587405263 Z" stroke-opacity="1" stroke-linecap="round" stroke-linejoin="round" stroke-miterlimit="10"/></g></g></svg>